# xmcd
#
# Track frame offsets: 
#        150
#        15531
#        31726
#        47731
#        64475
#        86105
#        107422
#        128950
#        147473
#        166984
#        187698
#        208082
#
# Disc length: 3027 seconds
#
# Revision: 0
# Processed by: cddbd v1.5.2PL0 Copyright (c) Steve Scherf et al.
# Submitted via: ExactAudioCopy v1.1
#
DISCID=a20bd10c
DTITLE=五木ひろし - 五木ひろし 芸能生活50周年記念大全集 シングルセレクション Disc 2 FKCX-5064-7-mok
DYEAR=1900
DGENRE=Blues
TTITLE0=潮どき
TTITLE1=おまえとふたり (ニューバージョン)
TTITLE2=倖せさがして
TTITLE3=人生かくれんぼ
TTITLE4=契り (アルバムバージョン)
TTITLE5=細雪 (ニューバージョン)
TTITLE6=長良川艶歌 (ニューバージョン)
TTITLE7=そして…めぐり逢い
TTITLE8=浪花盃
TTITLE9=追憶
TTITLE10=港の五番町
TTITLE11=暖簾
EXTD=
EXTT0=
EXTT1=
EXTT2=
EXTT3=
EXTT4=
EXTT5=
EXTT6=
EXTT7=
EXTT8=
EXTT9=
EXTT10=
EXTT11=
PLAYORDER=
